STARTFONT 2.1
FONT -Danfuzz-Elseif-Medium-R-Normal--15-140-75-75-M-90-ISO8859-1
SIZE 14 75 75
FONTBOUNDINGBOX 9 15 0 -2
COMMENT "This bdf font was generated from a postscript font, Elseif, by pfaedit"
STARTPROPERTIES 24
FONT_ASCENT 13
FONT_DESCENT 2
QUAD_WIDTH 15
X_HEIGHT 7
CAP_HEIGHT 11
FONTNAME_REGISTRY ""
FAMILY_NAME "Elseif"
FOUNDRY "Danfuzz"
WEIGHT_NAME "Medium"
SETWIDTH_NAME "Normal"
SLANT "R"
ADD_STYLE_NAME ""
PIXEL_SIZE 15
POINT_SIZE 140
RESOLUTION_X 75
RESOLUTION_Y 75
RESOLUTION 75
SPACING "M"
AVERAGE_WIDTH 90
CHARSET_REGISTRY "ISO8859"
CHARSET_ENCODING "1"
CHARSET_COLLECTIONS "ASCII ISO8859-1"
FULL_NAME "Elseif"
COPYRIGHT "2002 Dan Bornstein, <http://www.milk.com/>"
ENDPROPERTIES
CHARS 192
STARTCHAR .notdef
ENCODING 0
SWIDTH 600 0
DWIDTH 9 0
BBX 8 15 0 -2
BITMAP
3C
7E
66
66
7E
3C
DB
FF
7E
18
3C
7E
66
C3
C3
ENDCHAR
STARTCHAR space
ENCODING 32
SWIDTH 600 0
DWIDTH 9 0
BBX 1 1 0 0
BITMAP
00
ENDCHAR
STARTCHAR exclam
ENCODING 33
SWIDTH 600 0
DWIDTH 9 0
BBX 2 12 3 0
BITMAP
C0
C0
C0
C0
C0
C0
C0
C0
00
00
C0
C0
ENDCHAR
STARTCHAR quotedbl
ENCODING 34
SWIDTH 600 0
DWIDTH 9 0
BBX 7 5 1 7
BITMAP
66
66
66
CC
CC
ENDCHAR
STARTCHAR numbersign
ENCODING 35
SWIDTH 600 0
DWIDTH 9 0
BBX 7 10 1 1
BITMAP
6C
6C
FE
FE
6C
6C
FE
FE
6C
6C
ENDCHAR
STARTCHAR dollar
ENCODING 36
SWIDTH 600 0
DWIDTH 9 0
BBX 7 12 1 0
BITMAP
18
18
7C
FE
D8
FC
7E
16
FE
7C
18
18
ENDCHAR
STARTCHAR percent
ENCODING 37
SWIDTH 600 0
DWIDTH 9 0
BBX 9 14 0 -1
BITMAP
6000
9300
9300
9600
6600
0C00
0C00
1800
1800
3300
3480
6480
6480
0300
ENDCHAR
STARTCHAR ampersand
ENCODING 38
SWIDTH 600 0
DWIDTH 9 0
BBX 8 12 1 0
BITMAP
30
78
CC
CC
78
70
D8
DB
CE
CC
FE
7B
ENDCHAR
STARTCHAR quotesingle
ENCODING 39
SWIDTH 600 0
DWIDTH 9 0
BBX 3 5 3 7
BITMAP
60
60
60
C0
C0
ENDCHAR
STARTCHAR parenleft
ENCODING 40
SWIDTH 600 0
DWIDTH 9 0
BBX 4 12 3 0
BITMAP
30
70
E0
C0
C0
C0
C0
C0
C0
E0
70
30
ENDCHAR
STARTCHAR parenright
ENCODING 41
SWIDTH 600 0
DWIDTH 9 0
BBX 4 12 2 0
BITMAP
C0
E0
70
30
30
30
30
30
30
70
E0
C0
ENDCHAR
STARTCHAR asterisk
ENCODING 42
SWIDTH 600 0
DWIDTH 9 0
BBX 8 9 0 2
BITMAP
18
18
DB
FF
7E
3C
7E
E7
C3
ENDCHAR
STARTCHAR plus
ENCODING 43
SWIDTH 600 0
DWIDTH 9 0
BBX 6 6 1 3
BITMAP
30
30
FC
FC
30
30
ENDCHAR
STARTCHAR comma
ENCODING 44
SWIDTH 600 0
DWIDTH 9 0
BBX 3 5 2 -2
BITMAP
60
60
60
C0
C0
ENDCHAR
STARTCHAR hyphen
ENCODING 45
SWIDTH 600 0
DWIDTH 9 0
BBX 7 2 1 5
BITMAP
FE
FE
ENDCHAR
STARTCHAR period
ENCODING 46
SWIDTH 600 0
DWIDTH 9 0
BBX 2 2 3 0
BITMAP
C0
C0
ENDCHAR
STARTCHAR slash
ENCODING 47
SWIDTH 600 0
DWIDTH 9 0
BBX 7 12 1 0
BITMAP
06
06
0C
0C
18
18
30
30
60
60
C0
C0
ENDCHAR
STARTCHAR zero
ENCODING 48
SWIDTH 600 0
DWIDTH 9 0
BBX 7 12 1 0
BITMAP
7C
FE
C6
CE
CE
DE
F6
E6
E6
C6
FE
7C
ENDCHAR
STARTCHAR one
ENCODING 49
SWIDTH 600 0
DWIDTH 9 0
BBX 6 12 2 0
BITMAP
30
70
F0
F0
30
30
30
30
30
30
FC
FC
ENDCHAR
STARTCHAR two
ENCODING 50
SWIDTH 600 0
DWIDTH 9 0
BBX 7 12 1 0
BITMAP
7C
FE
C6
06
0E
1C
38
70
E0
C6
FE
FE
ENDCHAR
STARTCHAR three
ENCODING 51
SWIDTH 600 0
DWIDTH 9 0
BBX 7 12 1 0
BITMAP
FE
FE
0E
1C
38
7C
06
06
06
C6
FE
7C
ENDCHAR
STARTCHAR four
ENCODING 52
SWIDTH 600 0
DWIDTH 9 0
BBX 7 12 1 0
BITMAP
1C
3C
3C
6C
6C
CC
FE
FE
0C
0C
1E
1E
ENDCHAR
STARTCHAR five
ENCODING 53
SWIDTH 600 0
DWIDTH 9 0
BBX 7 12 1 0
BITMAP
FE
FE
C0
C0
FC
FE
06
06
06
C6
FE
7C
ENDCHAR
STARTCHAR six
ENCODING 54
SWIDTH 600 0
DWIDTH 9 0
BBX 7 12 1 0
BITMAP
7C
FC
C0
C0
FC
FE
C6
C6
C6
C6
FE
7C
ENDCHAR
STARTCHAR seven
ENCODING 55
SWIDTH 600 0
DWIDTH 9 0
BBX 7 12 1 0
BITMAP
FE
FE
C6
0C
0C
18
18
30
30
30
30
30
ENDCHAR
STARTCHAR eight
ENCODING 56
SWIDTH 600 0
DWIDTH 9 0
BBX 7 12 1 0
BITMAP
7C
FE
C6
C6
FE
7C
C6
C6
C6
C6
FE
7C
ENDCHAR
STARTCHAR nine
ENCODING 57
SWIDTH 600 0
DWIDTH 9 0
BBX 7 12 1 0
BITMAP
7C
FE
C6
C6
C6
C6
FE
7E
06
06
7E
7C
ENDCHAR
STARTCHAR colon
ENCODING 58
SWIDTH 600 0
DWIDTH 9 0
BBX 2 8 3 2
BITMAP
C0
C0
00
00
00
00
C0
C0
ENDCHAR
STARTCHAR semicolon
ENCODING 59
SWIDTH 600 0
DWIDTH 9 0
BBX 3 11 2 -1
BITMAP
60
60
00
00
00
00
60
60
60
C0
C0
ENDCHAR
STARTCHAR less
ENCODING 60
SWIDTH 600 0
DWIDTH 9 0
BBX 7 11 1 0
BITMAP
06
0E
1C
38
70
E0
70
38
1C
0E
06
ENDCHAR
STARTCHAR equal
ENCODING 61
SWIDTH 600 0
DWIDTH 9 0
BBX 7 6 1 3
BITMAP
FE
FE
00
00
FE
FE
ENDCHAR
STARTCHAR greater
ENCODING 62
SWIDTH 600 0
DWIDTH 9 0
BBX 7 11 1 0
BITMAP
C0
E0
70
38
1C
0E
1C
38
70
E0
C0
ENDCHAR
STARTCHAR question
ENCODING 63
SWIDTH 600 0
DWIDTH 9 0
BBX 7 12 1 0
BITMAP
7C
FE
C6
06
0E
1C
38
30
00
00
30
30
ENDCHAR
STARTCHAR at
ENCODING 64
SWIDTH 600 0
DWIDTH 9 0
BBX 8 12 1 0
BITMAP
7C
FE
C6
C6
DE
F6
F7
DF
C0
C6
FE
7C
ENDCHAR
STARTCHAR A
ENCODING 65
SWIDTH 600 0
DWIDTH 9 0
BBX 9 12 0 0
BITMAP
0800
1C00
1C00
3600
3600
3600
3E00
7F00
6300
6300
F780
F780
ENDCHAR
STARTCHAR B
ENCODING 66
SWIDTH 600 0
DWIDTH 9 0
BBX 8 12 0 0
BITMAP
FC
FE
66
66
7C
7E
63
63
63
63
FF
FE
ENDCHAR
STARTCHAR C
ENCODING 67
SWIDTH 600 0
DWIDTH 9 0
BBX 7 12 1 0
BITMAP
7C
FE
C6
C0
C0
C0
C0
C0
C0
C6
FE
7C
ENDCHAR
STARTCHAR D
ENCODING 68
SWIDTH 600 0
DWIDTH 9 0
BBX 8 12 0 0
BITMAP
FC
FE
66
63
63
63
63
63
63
66
FE
FC
ENDCHAR
STARTCHAR E
ENCODING 69
SWIDTH 600 0
DWIDTH 9 0
BBX 8 12 0 0
BITMAP
FF
FF
63
60
60
7C
7C
60
60
63
FF
FF
ENDCHAR
STARTCHAR F
ENCODING 70
SWIDTH 600 0
DWIDTH 9 0
BBX 8 12 0 0
BITMAP
FF
FF
63
60
60
7C
7C
60
60
60
F0
F0
ENDCHAR
STARTCHAR G
ENCODING 71
SWIDTH 600 0
DWIDTH 9 0
BBX 8 12 1 0
BITMAP
7C
FE
C6
C0
C0
DF
DF
C6
C6
C6
FE
76
ENDCHAR
STARTCHAR H
ENCODING 72
SWIDTH 600 0
DWIDTH 9 0
BBX 9 12 0 0
BITMAP
F780
F780
6300
6300
6300
7F00
7F00
6300
6300
6300
F780
F780
ENDCHAR
STARTCHAR I
ENCODING 73
SWIDTH 600 0
DWIDTH 9 0
BBX 6 12 1 0
BITMAP
FC
FC
30
30
30
30
30
30
30
30
FC
FC
ENDCHAR
STARTCHAR J
ENCODING 74
SWIDTH 600 0
DWIDTH 9 0
BBX 8 12 1 0
BITMAP
3F
3F
0C
0C
0C
0C
0C
0C
0C
CC
FC
78
ENDCHAR
STARTCHAR K
ENCODING 75
SWIDTH 600 0
DWIDTH 9 0
BBX 9 12 0 0
BITMAP
F780
F780
6300
6E00
6C00
7800
7800
6C00
6E00
6300
F780
F780
ENDCHAR
STARTCHAR L
ENCODING 76
SWIDTH 600 0
DWIDTH 9 0
BBX 8 12 0 0
BITMAP
F0
F0
60
60
60
60
60
60
60
63
FF
FF
ENDCHAR
STARTCHAR M
ENCODING 77
SWIDTH 600 0
DWIDTH 9 0
BBX 8 12 0 0
BITMAP
81
C3
C3
E7
E7
FF
DB
DB
DB
C3
C3
C3
ENDCHAR
STARTCHAR N
ENCODING 78
SWIDTH 600 0
DWIDTH 9 0
BBX 9 12 0 0
BITMAP
F780
E780
7300
7300
7B00
7B00
6F00
6F00
6700
6700
F380
F780
ENDCHAR
STARTCHAR O
ENCODING 79
SWIDTH 600 0
DWIDTH 9 0
BBX 7 12 1 0
BITMAP
7C
FE
C6
C6
C6
C6
C6
C6
C6
C6
FE
7C
ENDCHAR
STARTCHAR P
ENCODING 80
SWIDTH 600 0
DWIDTH 9 0
BBX 8 12 0 0
BITMAP
FE
FF
63
63
63
7F
7E
60
60
60
F0
F0
ENDCHAR
STARTCHAR Q
ENCODING 81
SWIDTH 600 0
DWIDTH 9 0
BBX 7 14 1 -2
BITMAP
7C
FE
C6
C6
C6
C6
C6
E6
F6
DE
FE
7C
0C
06
ENDCHAR
STARTCHAR R
ENCODING 82
SWIDTH 600 0
DWIDTH 9 0
BBX 9 12 0 0
BITMAP
FE00
FF00
6300
6300
6300
7F00
7E00
6C00
6600
6600
F380
F780
ENDCHAR
STARTCHAR S
ENCODING 83
SWIDTH 600 0
DWIDTH 9 0
BBX 7 12 1 0
BITMAP
76
7E
C6
C0
C0
78
3C
06
06
C6
FC
DC
ENDCHAR
STARTCHAR T
ENCODING 84
SWIDTH 600 0
DWIDTH 9 0
BBX 8 12 0 0
BITMAP
FF
FF
18
18
18
18
18
18
18
18
3C
3C
ENDCHAR
STARTCHAR U
ENCODING 85
SWIDTH 600 0
DWIDTH 9 0
BBX 9 12 0 0
BITMAP
F780
F780
6300
6300
6300
6300
6300
6300
6300
6300
7F00
3E00
ENDCHAR
STARTCHAR V
ENCODING 86
SWIDTH 600 0
DWIDTH 9 0
BBX 9 12 0 0
BITMAP
F780
F780
6300
6300
7700
3600
3600
3600
1C00
1C00
1C00
0800
ENDCHAR
STARTCHAR W
ENCODING 87
SWIDTH 600 0
DWIDTH 9 0
BBX 9 12 0 0
BITMAP
C180
C980
C980
DD80
DD80
7F00
7F00
7700
7700
3600
2200
2200
ENDCHAR
STARTCHAR X
ENCODING 88
SWIDTH 600 0
DWIDTH 9 0
BBX 9 12 0 0
BITMAP
F780
E380
7700
3600
3E00
1C00
1C00
3E00
3600
7700
E380
F780
ENDCHAR
STARTCHAR Y
ENCODING 89
SWIDTH 600 0
DWIDTH 9 0
BBX 8 12 0 0
BITMAP
C3
C3
C3
66
66
3C
3C
18
18
18
3C
3C
ENDCHAR
STARTCHAR Z
ENCODING 90
SWIDTH 600 0
DWIDTH 9 0
BBX 7 12 1 0
BITMAP
FE
FE
CE
0C
1C
18
30
70
60
E6
FE
FE
ENDCHAR
STARTCHAR bracketleft
ENCODING 91
SWIDTH 600 0
DWIDTH 9 0
BBX 4 14 3 -1
BITMAP
F0
F0
C0
C0
C0
C0
C0
C0
C0
C0
C0
C0
F0
F0
ENDCHAR
STARTCHAR backslash
ENCODING 92
SWIDTH 600 0
DWIDTH 9 0
BBX 7 12 1 0
BITMAP
C0
C0
60
60
30
30
18
18
0C
0C
06
06
ENDCHAR
STARTCHAR bracketright
ENCODING 93
SWIDTH 600 0
DWIDTH 9 0
BBX 4 14 2 -1
BITMAP
F0
F0
30
30
30
30
30
30
30
30
30
30
F0
F0
ENDCHAR
STARTCHAR asciicircum
ENCODING 94
SWIDTH 600 0
DWIDTH 9 0
BBX 7 5 1 5
BITMAP
10
38
7C
EE
C6
ENDCHAR
STARTCHAR underscore
ENCODING 95
SWIDTH 600 0
DWIDTH 9 0
BBX 7 2 1 -1
BITMAP
FE
FE
ENDCHAR
STARTCHAR grave
ENCODING 96
SWIDTH 600 0
DWIDTH 9 0
BBX 3 5 3 7
BITMAP
C0
C0
C0
60
60
ENDCHAR
STARTCHAR a
ENCODING 97
SWIDTH 600 0
DWIDTH 9 0
BBX 8 8 1 0
BITMAP
7C
FE
06
7E
FE
C6
FF
7B
ENDCHAR
STARTCHAR b
ENCODING 98
SWIDTH 600 0
DWIDTH 9 0
BBX 8 12 0 0
BITMAP
F0
F0
60
60
6E
7F
63
63
63
63
FF
DE
ENDCHAR
STARTCHAR c
ENCODING 99
SWIDTH 600 0
DWIDTH 9 0
BBX 7 8 1 0
BITMAP
7C
FE
C6
C0
C0
C6
FE
7C
ENDCHAR
STARTCHAR d
ENCODING 100
SWIDTH 600 0
DWIDTH 9 0
BBX 8 12 1 0
BITMAP
0F
0F
06
06
76
FE
C6
C6
C6
C6
FF
7B
ENDCHAR
STARTCHAR e
ENCODING 101
SWIDTH 600 0
DWIDTH 9 0
BBX 7 8 1 0
BITMAP
7C
FE
C6
FE
FE
C0
FE
7C
ENDCHAR
STARTCHAR f
ENCODING 102
SWIDTH 600 0
DWIDTH 9 0
BBX 8 12 1 0
BITMAP
1E
3F
33
30
FC
FC
30
30
30
30
FC
FC
ENDCHAR
STARTCHAR g
ENCODING 103
SWIDTH 600 0
DWIDTH 9 0
BBX 8 10 1 -2
BITMAP
77
FF
C6
C6
C6
FE
76
06
7E
7C
ENDCHAR
STARTCHAR h
ENCODING 104
SWIDTH 600 0
DWIDTH 9 0
BBX 9 12 0 0
BITMAP
F000
F000
6000
6000
6E00
7F00
7300
6300
6300
6300
F780
F780
ENDCHAR
STARTCHAR i
ENCODING 105
SWIDTH 600 0
DWIDTH 9 0
BBX 6 11 2 0
BITMAP
30
30
00
F0
F0
30
30
30
30
FC
FC
ENDCHAR
STARTCHAR j
ENCODING 106
SWIDTH 600 0
DWIDTH 9 0
BBX 6 13 2 -2
BITMAP
0C
0C
00
3C
3C
0C
0C
0C
0C
0C
CC
FC
78
ENDCHAR
STARTCHAR k
ENCODING 107
SWIDTH 600 0
DWIDTH 9 0
BBX 9 12 0 0
BITMAP
F000
F000
6000
6000
6780
6380
6F00
7C00
7C00
6F00
F380
F780
ENDCHAR
STARTCHAR l
ENCODING 108
SWIDTH 600 0
DWIDTH 9 0
BBX 6 12 2 0
BITMAP
F0
F0
30
30
30
30
30
30
30
30
FC
FC
ENDCHAR
STARTCHAR m
ENCODING 109
SWIDTH 600 0
DWIDTH 9 0
BBX 9 8 0 0
BITMAP
DB00
FF80
7F80
6D80
6D80
6D80
E180
E180
ENDCHAR
STARTCHAR n
ENCODING 110
SWIDTH 600 0
DWIDTH 9 0
BBX 9 8 0 0
BITMAP
EE00
FF00
6300
6300
6300
6300
F780
F780
ENDCHAR
STARTCHAR o
ENCODING 111
SWIDTH 600 0
DWIDTH 9 0
BBX 7 8 1 0
BITMAP
7C
FE
C6
C6
C6
C6
FE
7C
ENDCHAR
STARTCHAR p
ENCODING 112
SWIDTH 600 0
DWIDTH 9 0
BBX 8 10 0 -2
BITMAP
EC
FE
63
63
63
73
7E
6C
E0
F0
ENDCHAR
STARTCHAR q
ENCODING 113
SWIDTH 600 0
DWIDTH 9 0
BBX 8 10 1 -2
BITMAP
37
7F
C6
C6
C6
CE
7E
36
07
0F
ENDCHAR
STARTCHAR r
ENCODING 114
SWIDTH 600 0
DWIDTH 9 0
BBX 8 8 0 0
BITMAP
EE
FF
73
60
60
60
F0
F0
ENDCHAR
STARTCHAR s
ENCODING 115
SWIDTH 600 0
DWIDTH 9 0
BBX 7 8 1 0
BITMAP
7C
FE
C0
FC
7E
06
FE
7C
ENDCHAR
STARTCHAR t
ENCODING 116
SWIDTH 600 0
DWIDTH 9 0
BBX 7 11 1 0
BITMAP
30
30
30
FC
FC
30
30
30
36
3E
1C
ENDCHAR
STARTCHAR u
ENCODING 117
SWIDTH 600 0
DWIDTH 9 0
BBX 9 8 0 0
BITMAP
F780
F780
6300
6300
6300
6300
7F80
3D80
ENDCHAR
STARTCHAR v
ENCODING 118
SWIDTH 600 0
DWIDTH 9 0
BBX 9 8 0 0
BITMAP
F780
F780
6300
3600
3600
1C00
1C00
0800
ENDCHAR
STARTCHAR w
ENCODING 119
SWIDTH 600 0
DWIDTH 9 0
BBX 8 8 0 0
BITMAP
C3
DB
DB
7E
7E
7E
24
24
ENDCHAR
STARTCHAR x
ENCODING 120
SWIDTH 600 0
DWIDTH 9 0
BBX 9 8 0 0
BITMAP
F780
E380
3600
1C00
1C00
3600
E380
F780
ENDCHAR
STARTCHAR y
ENCODING 121
SWIDTH 600 0
DWIDTH 9 0
BBX 9 10 0 -2
BITMAP
F780
F780
6300
3300
3600
1E00
1C00
0C00
3800
3800
ENDCHAR
STARTCHAR z
ENCODING 122
SWIDTH 600 0
DWIDTH 9 0
BBX 7 8 1 0
BITMAP
FE
FE
1C
38
70
E0
FE
FE
ENDCHAR
STARTCHAR braceleft
ENCODING 123
SWIDTH 600 0
DWIDTH 9 0
BBX 6 14 1 -1
BITMAP
1C
3C
30
30
30
70
C0
C0
70
30
30
30
3C
1C
ENDCHAR
STARTCHAR bar
ENCODING 124
SWIDTH 600 0
DWIDTH 9 0
BBX 2 14 4 -1
BITMAP
C0
C0
C0
C0
C0
C0
C0
C0
C0
C0
C0
C0
C0
C0
ENDCHAR
STARTCHAR braceright
ENCODING 125
SWIDTH 600 0
DWIDTH 9 0
BBX 6 14 2 -1
BITMAP
E0
F0
30
30
30
38
0C
0C
38
30
30
30
F0
E0
ENDCHAR
STARTCHAR asciitilde
ENCODING 126
SWIDTH 600 0
DWIDTH 9 0
BBX 7 3 1 7
BITMAP
72
D6
9C
ENDCHAR
STARTCHAR nonbreakingspace
ENCODING 160
SWIDTH 600 0
DWIDTH 9 0
BBX 1 1 0 0
BITMAP
00
ENDCHAR
STARTCHAR exclamdown
ENCODING 161
SWIDTH 600 0
DWIDTH 9 0
BBX 2 12 3 -1
BITMAP
C0
C0
00
00
C0
C0
C0
C0
C0
C0
C0
C0
ENDCHAR
STARTCHAR cent
ENCODING 162
SWIDTH 600 0
DWIDTH 9 0
BBX 7 12 1 0
BITMAP
18
18
7C
FE
DE
D8
D8
DE
FE
7C
18
18
ENDCHAR
STARTCHAR sterling
ENCODING 163
SWIDTH 600 0
DWIDTH 9 0
BBX 8 12 1 0
BITMAP
3C
7E
66
60
60
F8
F8
60
60
73
FF
EE
ENDCHAR
STARTCHAR currency
ENCODING 164
SWIDTH 600 0
DWIDTH 9 0
BBX 8 8 0 2
BITMAP
C3
FF
7E
66
66
7E
FF
C3
ENDCHAR
STARTCHAR yen
ENCODING 165
SWIDTH 600 0
DWIDTH 9 0
BBX 8 12 0 0
BITMAP
C3
C3
C3
66
66
3C
7E
18
7E
18
3C
3C
ENDCHAR
STARTCHAR brokenbar
ENCODING 166
SWIDTH 600 0
DWIDTH 9 0
BBX 2 14 4 -1
BITMAP
C0
C0
C0
C0
C0
C0
00
00
C0
C0
C0
C0
C0
C0
ENDCHAR
STARTCHAR section
ENCODING 167
SWIDTH 600 0
DWIDTH 9 0
BBX 7 12 1 0
BITMAP
7C
FE
E6
70
D8
CC
66
36
1C
CE
FE
7C
ENDCHAR
STARTCHAR dieresis
ENCODING 168
SWIDTH 600 0
DWIDTH 9 0
BBX 7 2 1 9
BITMAP
C6
C6
ENDCHAR
STARTCHAR copyright
ENCODING 169
SWIDTH 600 0
DWIDTH 9 0
BBX 9 9 0 2
BITMAP
3E00
6300
CD80
D180
D180
D180
CD80
6300
3E00
ENDCHAR
STARTCHAR ordfeminine
ENCODING 170
SWIDTH 600 0
DWIDTH 9 0
BBX 7 7 1 5
BITMAP
78
FC
0C
7C
CC
FE
7E
ENDCHAR
STARTCHAR guillemotleft
ENCODING 171
SWIDTH 600 0
DWIDTH 9 0
BBX 9 7 0 0
BITMAP
1980
3300
6600
CC00
6600
3300
1980
ENDCHAR
STARTCHAR logicalnot
ENCODING 172
SWIDTH 600 0
DWIDTH 9 0
BBX 7 4 1 3
BITMAP
FE
FE
06
06
ENDCHAR
STARTCHAR softhyphen
ENCODING 173
SWIDTH 600 0
DWIDTH 9 0
BBX 7 2 1 5
BITMAP
FE
FE
ENDCHAR
STARTCHAR registered
ENCODING 174
SWIDTH 600 0
DWIDTH 9 0
BBX 9 8 0 4
BITMAP
3E00
6300
D980
D580
D980
D580
6300
3E00
ENDCHAR
STARTCHAR macron
ENCODING 175
SWIDTH 600 0
DWIDTH 9 0
BBX 7 2 1 9
BITMAP
FE
FE
ENDCHAR
STARTCHAR degree
ENCODING 176
SWIDTH 600 0
DWIDTH 9 0
BBX 6 6 1 6
BITMAP
78
FC
CC
CC
FC
78
ENDCHAR
STARTCHAR plusminus
ENCODING 177
SWIDTH 600 0
DWIDTH 9 0
BBX 6 10 1 1
BITMAP
30
30
FC
FC
30
30
00
00
FC
FC
ENDCHAR
STARTCHAR twosuperior
ENCODING 178
SWIDTH 600 0
DWIDTH 9 0
BBX 6 7 1 5
BITMAP
78
FC
0C
78
C0
FC
FC
ENDCHAR
STARTCHAR threesuperior
ENCODING 179
SWIDTH 600 0
DWIDTH 9 0
BBX 6 7 1 5
BITMAP
78
FC
0C
78
0C
FC
78
ENDCHAR
STARTCHAR acute
ENCODING 180
SWIDTH 600 0
DWIDTH 9 0
BBX 4 3 3 9
BITMAP
30
60
C0
ENDCHAR
STARTCHAR mu
ENCODING 181
SWIDTH 600 0
DWIDTH 9 0
BBX 9 10 0 -2
BITMAP
F780
F780
6300
6300
6300
7300
7F00
6E00
E000
F000
ENDCHAR
STARTCHAR paragraph
ENCODING 182
SWIDTH 600 0
DWIDTH 9 0
BBX 7 12 1 0
BITMAP
7E
FE
F6
F6
F6
76
16
16
16
16
16
16
ENDCHAR
STARTCHAR periodcentered
ENCODING 183
SWIDTH 600 0
DWIDTH 9 0
BBX 2 2 3 5
BITMAP
C0
C0
ENDCHAR
STARTCHAR cedilla
ENCODING 184
SWIDTH 600 0
DWIDTH 9 0
BBX 3 2 3 -2
BITMAP
60
C0
ENDCHAR
STARTCHAR onesuperior
ENCODING 185
SWIDTH 600 0
DWIDTH 9 0
BBX 6 7 1 5
BITMAP
70
F0
30
30
30
FC
FC
ENDCHAR
STARTCHAR ordmasculine
ENCODING 186
SWIDTH 600 0
DWIDTH 9 0
BBX 6 7 1 5
BITMAP
78
FC
CC
CC
CC
FC
78
ENDCHAR
STARTCHAR guillemotright
ENCODING 187
SWIDTH 600 0
DWIDTH 9 0
BBX 9 7 0 0
BITMAP
CC00
6600
3300
1980
3300
6600
CC00
ENDCHAR
STARTCHAR onequarter
ENCODING 188
SWIDTH 600 0
DWIDTH 9 0
BBX 8 14 1 -1
BITMAP
40
C6
46
4C
EC
18
18
30
30
62
66
CA
CF
02
ENDCHAR
STARTCHAR onehalf
ENCODING 189
SWIDTH 600 0
DWIDTH 9 0
BBX 8 14 1 -1
BITMAP
40
C6
46
4C
EC
18
18
30
30
6E
61
C6
C8
0F
ENDCHAR
STARTCHAR threequarters
ENCODING 190
SWIDTH 600 0
DWIDTH 9 0
BBX 9 14 0 -1
BITMAP
E000
1300
6300
1600
E600
0C00
0C00
1800
1800
3100
3300
6500
6780
0100
ENDCHAR
STARTCHAR questiondown
ENCODING 191
SWIDTH 600 0
DWIDTH 9 0
BBX 7 12 1 -1
BITMAP
18
18
00
00
18
38
70
E0
C0
C6
FE
7C
ENDCHAR
STARTCHAR Agrave
ENCODING 192
SWIDTH 600 0
DWIDTH 9 0
BBX 9 13 0 0
BITMAP
3000
1800
0C00
0800
1C00
1C00
3600
3600
3E00
7F00
6300
F780
F780
ENDCHAR
STARTCHAR Aacute
ENCODING 193
SWIDTH 600 0
DWIDTH 9 0
BBX 9 13 0 0
BITMAP
0600
0C00
1800
0800
1C00
1C00
3600
3600
3E00
7F00
6300
F780
F780
ENDCHAR
STARTCHAR Acircumflex
ENCODING 194
SWIDTH 600 0
DWIDTH 9 0
BBX 9 13 0 0
BITMAP
0800
1C00
3600
0800
1C00
1C00
3600
3600
3E00
7F00
6300
F780
F780
ENDCHAR
STARTCHAR Atilde
ENCODING 195
SWIDTH 600 0
DWIDTH 9 0
BBX 9 13 0 0
BITMAP
3900
6B00
4E00
0800
1C00
1C00
3600
3600
3E00
7F00
6300
F780
F780
ENDCHAR
STARTCHAR Adieresis
ENCODING 196
SWIDTH 600 0
DWIDTH 9 0
BBX 9 13 0 0
BITMAP
6300
6300
0000
0800
1C00
1C00
3600
3600
3E00
7F00
6300
F780
F780
ENDCHAR
STARTCHAR Aring
ENCODING 197
SWIDTH 600 0
DWIDTH 9 0
BBX 9 13 0 0
BITMAP
1C00
3600
3600
1C00
1C00
1C00
3600
3600
3E00
7F00
6300
F780
F780
ENDCHAR
STARTCHAR AE
ENCODING 198
SWIDTH 600 0
DWIDTH 9 0
BBX 9 12 0 0
BITMAP
1F80
3F80
3980
6C00
6C00
6F00
7F00
7C00
6C00
6D80
EF80
EF80
ENDCHAR
STARTCHAR Ccedilla
ENCODING 199
SWIDTH 600 0
DWIDTH 9 0
BBX 7 14 1 -2
BITMAP
7C
FE
C6
C0
C0
C0
C0
C0
C0
C6
FE
7C
18
30
ENDCHAR
STARTCHAR Egrave
ENCODING 200
SWIDTH 600 0
DWIDTH 9 0
BBX 8 13 0 0
BITMAP
30
18
0C
FF
FF
63
60
7C
7C
60
63
FF
FF
ENDCHAR
STARTCHAR Eacute
ENCODING 201
SWIDTH 600 0
DWIDTH 9 0
BBX 8 13 0 0
BITMAP
06
0C
18
FF
FF
63
60
7C
7C
60
63
FF
FF
ENDCHAR
STARTCHAR Ecircumflex
ENCODING 202
SWIDTH 600 0
DWIDTH 9 0
BBX 8 13 0 0
BITMAP
08
1C
36
FF
FF
63
60
7C
7C
60
63
FF
FF
ENDCHAR
STARTCHAR Edieresis
ENCODING 203
SWIDTH 600 0
DWIDTH 9 0
BBX 8 13 0 0
BITMAP
63
63
00
FF
FF
63
60
7C
7C
60
63
FF
FF
ENDCHAR
STARTCHAR Igrave
ENCODING 204
SWIDTH 600 0
DWIDTH 9 0
BBX 6 13 1 0
BITMAP
60
30
18
FC
FC
30
30
30
30
30
30
FC
FC
ENDCHAR
STARTCHAR Iacute
ENCODING 205
SWIDTH 600 0
DWIDTH 9 0
BBX 6 13 2 0
BITMAP
18
30
60
FC
FC
30
30
30
30
30
30
FC
FC
ENDCHAR
STARTCHAR Icircumflex
ENCODING 206
SWIDTH 600 0
DWIDTH 9 0
BBX 6 13 2 0
BITMAP
20
70
D8
FC
FC
30
30
30
30
30
30
FC
FC
ENDCHAR
STARTCHAR Idieresis
ENCODING 207
SWIDTH 600 0
DWIDTH 9 0
BBX 6 13 2 0
BITMAP
CC
CC
00
FC
FC
30
30
30
30
30
30
FC
FC
ENDCHAR
STARTCHAR Eth
ENCODING 208
SWIDTH 600 0
DWIDTH 9 0
BBX 8 12 0 0
BITMAP
FE
FF
63
63
63
FB
FB
63
63
63
FF
FE
ENDCHAR
STARTCHAR Ntilde
ENCODING 209
SWIDTH 600 0
DWIDTH 9 0
BBX 9 13 0 0
BITMAP
3900
6B00
4E00
F780
E780
7300
7B00
7B00
6F00
6F00
6700
F380
F780
ENDCHAR
STARTCHAR Ograve
ENCODING 210
SWIDTH 600 0
DWIDTH 9 0
BBX 7 13 1 0
BITMAP
60
30
18
7C
FE
C6
C6
C6
C6
C6
C6
FE
7C
ENDCHAR
STARTCHAR Oacute
ENCODING 211
SWIDTH 600 0
DWIDTH 9 0
BBX 7 13 1 0
BITMAP
0C
18
30
7C
FE
C6
C6
C6
C6
C6
C6
FE
7C
ENDCHAR
STARTCHAR Ocircumflex
ENCODING 212
SWIDTH 600 0
DWIDTH 9 0
BBX 7 13 1 0
BITMAP
10
38
6C
7C
FE
C6
C6
C6
C6
C6
C6
FE
7C
ENDCHAR
STARTCHAR Otilde
ENCODING 213
SWIDTH 600 0
DWIDTH 9 0
BBX 7 13 1 0
BITMAP
72
D6
9C
7C
FE
C6
C6
C6
C6
C6
C6
FE
7C
ENDCHAR
STARTCHAR Odieresis
ENCODING 214
SWIDTH 600 0
DWIDTH 9 0
BBX 7 13 1 0
BITMAP
C6
C6
00
7C
FE
C6
C6
C6
C6
C6
C6
FE
7C
ENDCHAR
STARTCHAR multiply
ENCODING 215
SWIDTH 600 0
DWIDTH 9 0
BBX 7 8 1 2
BITMAP
C6
C6
6C
38
38
6C
C6
C6
ENDCHAR
STARTCHAR Oslash
ENCODING 216
SWIDTH 600 0
DWIDTH 9 0
BBX 9 14 0 -1
BITMAP
0180
3F00
7F00
6700
6700
6F00
6F00
7B00
7B00
7300
7300
7F00
7E00
C000
ENDCHAR
STARTCHAR Ugrave
ENCODING 217
SWIDTH 600 0
DWIDTH 9 0
BBX 9 13 0 0
BITMAP
3000
1800
0C00
F780
F780
6300
6300
6300
6300
6300
6300
7F00
3E00
ENDCHAR
STARTCHAR Uacute
ENCODING 218
SWIDTH 600 0
DWIDTH 9 0
BBX 9 13 0 0
BITMAP
0600
0C00
1800
F780
F780
6300
6300
6300
6300
6300
6300
7F00
3E00
ENDCHAR
STARTCHAR Ucircumflex
ENCODING 219
SWIDTH 600 0
DWIDTH 9 0
BBX 9 13 0 0
BITMAP
0800
1C00
3600
F780
F780
6300
6300
6300
6300
6300
6300
7F00
3E00
ENDCHAR
STARTCHAR Udieresis
ENCODING 220
SWIDTH 600 0
DWIDTH 9 0
BBX 9 13 0 0
BITMAP
6300
6300
0000
F780
F780
6300
6300
6300
6300
6300
6300
7F00
3E00
ENDCHAR
STARTCHAR Yacute
ENCODING 221
SWIDTH 600 0
DWIDTH 9 0
BBX 8 13 0 0
BITMAP
06
0C
18
C3
C3
66
66
3C
3C
18
18
3C
3C
ENDCHAR
STARTCHAR Thorn
ENCODING 222
SWIDTH 600 0
DWIDTH 9 0
BBX 8 12 0 0
BITMAP
F0
F0
6E
7F
63
63
63
63
7F
6E
F0
F0
ENDCHAR
STARTCHAR germandbls
ENCODING 223
SWIDTH 600 0
DWIDTH 9 0
BBX 7 12 1 0
BITMAP
78
FC
CC
CC
D8
D8
DC
C6
C6
C6
CE
CC
ENDCHAR
STARTCHAR agrave
ENCODING 224
SWIDTH 600 0
DWIDTH 9 0
BBX 8 12 1 0
BITMAP
60
30
18
00
7C
FE
06
7E
FE
C6
FF
7B
ENDCHAR
STARTCHAR aacute
ENCODING 225
SWIDTH 600 0
DWIDTH 9 0
BBX 8 12 1 0
BITMAP
0C
18
30
00
7C
FE
06
7E
FE
C6
FF
7B
ENDCHAR
STARTCHAR acircumflex
ENCODING 226
SWIDTH 600 0
DWIDTH 9 0
BBX 8 12 1 0
BITMAP
10
38
6C
00
7C
FE
06
7E
FE
C6
FF
7B
ENDCHAR
STARTCHAR atilde
ENCODING 227
SWIDTH 600 0
DWIDTH 9 0
BBX 8 12 1 0
BITMAP
72
D6
9C
00
7C
FE
06
7E
FE
C6
FF
7B
ENDCHAR
STARTCHAR adieresis
ENCODING 228
SWIDTH 600 0
DWIDTH 9 0
BBX 8 11 1 0
BITMAP
C6
C6
00
7C
FE
06
7E
FE
C6
FF
7B
ENDCHAR
STARTCHAR aring
ENCODING 229
SWIDTH 600 0
DWIDTH 9 0
BBX 8 12 1 0
BITMAP
38
6C
6C
38
7C
FE
06
7E
FE
C6
FF
7B
ENDCHAR
STARTCHAR ae
ENCODING 230
SWIDTH 600 0
DWIDTH 9 0
BBX 8 8 1 0
BITMAP
76
FF
1B
7F
FE
D8
FF
7E
ENDCHAR
STARTCHAR ccedilla
ENCODING 231
SWIDTH 600 0
DWIDTH 9 0
BBX 7 10 1 -2
BITMAP
7C
FE
C6
C0
C0
C6
FE
7C
18
30
ENDCHAR
STARTCHAR egrave
ENCODING 232
SWIDTH 600 0
DWIDTH 9 0
BBX 7 12 1 0
BITMAP
60
30
18
00
7C
FE
C6
FE
FE
C0
FE
7C
ENDCHAR
STARTCHAR eacute
ENCODING 233
SWIDTH 600 0
DWIDTH 9 0
BBX 7 12 1 0
BITMAP
0C
18
30
00
7C
FE
C6
FE
FE
C0
FE
7C
ENDCHAR
STARTCHAR ecircumflex
ENCODING 234
SWIDTH 600 0
DWIDTH 9 0
BBX 7 12 1 0
BITMAP
10
38
6C
00
7C
FE
C6
FE
FE
C0
FE
7C
ENDCHAR
STARTCHAR edieresis
ENCODING 235
SWIDTH 600 0
DWIDTH 9 0
BBX 7 11 1 0
BITMAP
C6
C6
00
7C
FE
C6
FE
FE
C0
FE
7C
ENDCHAR
STARTCHAR igrave
ENCODING 236
SWIDTH 600 0
DWIDTH 9 0
BBX 6 12 2 0
BITMAP
C0
60
30
00
F0
F0
30
30
30
30
FC
FC
ENDCHAR
STARTCHAR iacute
ENCODING 237
SWIDTH 600 0
DWIDTH 9 0
BBX 6 12 2 0
BITMAP
18
30
60
00
F0
F0
30
30
30
30
FC
FC
ENDCHAR
STARTCHAR icircumflex
ENCODING 238
SWIDTH 600 0
DWIDTH 9 0
BBX 6 12 2 0
BITMAP
20
70
D8
00
F0
F0
30
30
30
30
FC
FC
ENDCHAR
STARTCHAR idieresis
ENCODING 239
SWIDTH 600 0
DWIDTH 9 0
BBX 7 11 1 0
BITMAP
C6
C6
00
78
78
18
18
18
18
7E
7E
ENDCHAR
STARTCHAR eth
ENCODING 240
SWIDTH 600 0
DWIDTH 9 0
BBX 8 12 0 0
BITMAP
C0
76
38
CC
3E
7F
63
63
63
63
7F
3E
ENDCHAR
STARTCHAR ntilde
ENCODING 241
SWIDTH 600 0
DWIDTH 9 0
BBX 9 12 0 0
BITMAP
3900
6B00
4E00
0000
EE00
FF00
7300
6300
6300
6300
F780
F780
ENDCHAR
STARTCHAR ograve
ENCODING 242
SWIDTH 600 0
DWIDTH 9 0
BBX 7 12 1 0
BITMAP
60
30
18
00
7C
FE
C6
C6
C6
C6
FE
7C
ENDCHAR
STARTCHAR oacute
ENCODING 243
SWIDTH 600 0
DWIDTH 9 0
BBX 7 12 1 0
BITMAP
0C
18
30
00
7C
FE
C6
C6
C6
C6
FE
7C
ENDCHAR
STARTCHAR ocircumflex
ENCODING 244
SWIDTH 600 0
DWIDTH 9 0
BBX 7 12 1 0
BITMAP
10
38
6C
00
7C
FE
C6
C6
C6
C6
FE
7C
ENDCHAR
STARTCHAR otilde
ENCODING 245
SWIDTH 600 0
DWIDTH 9 0
BBX 7 12 1 0
BITMAP
72
D6
9C
00
7C
FE
C6
C6
C6
C6
FE
7C
ENDCHAR
STARTCHAR odieresis
ENCODING 246
SWIDTH 600 0
DWIDTH 9 0
BBX 7 11 1 0
BITMAP
C6
C6
00
7C
FE
C6
C6
C6
C6
FE
7C
ENDCHAR
STARTCHAR divide
ENCODING 247
SWIDTH 600 0
DWIDTH 9 0
BBX 6 8 1 2
BITMAP
30
30
00
FC
FC
00
30
30
ENDCHAR
STARTCHAR oslash
ENCODING 248
SWIDTH 600 0
DWIDTH 9 0
BBX 9 10 0 -1
BITMAP
0180
3F00
7F00
6F00
6B00
6B00
7B00
7F00
7E00
C000
ENDCHAR
STARTCHAR ugrave
ENCODING 249
SWIDTH 600 0
DWIDTH 9 0
BBX 9 12 0 0
BITMAP
3000
1800
0C00
0000
F780
F780
6300
6300
6300
6700
7F80
3B80
ENDCHAR
STARTCHAR uacute
ENCODING 250
SWIDTH 600 0
DWIDTH 9 0
BBX 9 12 0 0
BITMAP
0600
0C00
1800
0000
F780
F780
6300
6300
6300
6700
7F80
3B80
ENDCHAR
STARTCHAR ucircumflex
ENCODING 251
SWIDTH 600 0
DWIDTH 9 0
BBX 9 12 0 0
BITMAP
0800
1C00
3600
0000
F780
F780
6300
6300
6300
6700
7F80
3B80
ENDCHAR
STARTCHAR udieresis
ENCODING 252
SWIDTH 600 0
DWIDTH 9 0
BBX 9 11 0 0
BITMAP
6300
6300
0000
F780
F780
6300
6300
6300
6700
7F80
3B80
ENDCHAR
STARTCHAR yacute
ENCODING 253
SWIDTH 600 0
DWIDTH 9 0
BBX 9 14 0 -2
BITMAP
0600
0C00
1800
0000
F780
F780
6300
3300
3600
1E00
1C00
0C00
3800
3800
ENDCHAR
STARTCHAR thorn
ENCODING 254
SWIDTH 600 0
DWIDTH 9 0
BBX 8 14 0 -2
BITMAP
F0
F0
60
6C
7E
73
63
63
73
7E
6C
60
F0
F0
ENDCHAR
STARTCHAR ydieresis
ENCODING 255
SWIDTH 600 0
DWIDTH 9 0
BBX 9 13 0 -2
BITMAP
6300
6300
0000
F780
F780
6300
3300
3600
1E00
1C00
0C00
3800
3800
ENDCHAR
ENDFONT
